<svg version="1.1" id="Layer_1" xmlns="http://www.w3.org/2000/svg" xmlns:xlink="http://www.w3.org/1999/xlink" x="0px"
  y="0px" width="100%" viewBox="0 0 567 360" enable-background="new 0 0 567 360" xml:space="preserve">
  <path fill="#FFFEFE" opacity="1.000000" stroke="none" d="
M362.000000,361.000000
	C241.333328,361.000000 121.166664,361.000000 1.000000,361.000000
	C1.000000,241.000000 1.000000,121.000000 1.000000,1.000000
	C190.000000,1.000000 379.000000,1.000000 568.000000,1.000000
	C568.000000,121.000000 568.000000,241.000000 568.000000,361.000000
	C499.500000,361.000000 431.000000,361.000000 362.000000,361.000000
M505.070099,280.096863
	C505.070099,275.663757 505.070099,271.230652 505.070099,266.282349
	C387.304047,266.282349 270.257050,266.282349 153.332611,266.282349
	C153.134415,265.414520 152.996277,265.091675 152.996078,264.768799
	C152.975708,231.272293 152.922577,197.775574 153.072617,164.279785
	C153.080795,162.455322 154.406143,160.260132 155.767395,158.875641
	C172.472229,141.885590 189.326950,125.042961 206.049774,108.070473
	C207.767288,106.327339 208.884140,103.992378 210.353195,101.823524
	C213.051392,104.295769 214.314392,105.370888 215.485275,106.538399
	C228.935028,119.949326 242.327530,133.418289 255.876602,146.727951
	C257.242706,148.069916 259.519531,149.161804 261.395752,149.197144
	C273.223114,149.419937 285.056793,149.320969 296.888245,149.287094
	C297.574982,149.285126 298.260651,148.922882 298.730957,148.789520
	C269.524384,119.487686 240.491745,90.360352 211.409225,61.182980
	C211.087753,61.395760 210.617126,61.605412 210.278183,61.946083
	C182.076309,90.291420 153.858841,118.621445 125.774658,147.082977
	C124.479523,148.395523 123.821991,150.892929 123.816956,152.840942
	C123.709656,194.336716 123.738518,235.832809 123.740837,277.328857
	C123.740921,278.902283 123.740845,280.475708 123.740845,282.237366
	C126.070793,282.237366 127.564064,282.237396 129.057343,282.237366
	C252.378891,282.233154 375.700439,282.229828 499.022003,282.215149
	C500.681763,282.214966 502.341553,282.070435 504.568420,282.010498
	C504.680328,281.680542 504.792236,281.350616 505.070099,280.096863
M125.979156,83.478455
	C102.693726,106.846436 79.476929,130.283646 56.052227,153.511169
	C52.342945,157.189240 50.736984,160.870010 50.902596,166.153641
	C51.301594,178.883026 51.031895,191.633392 51.031895,205.940277
	C60.962612,195.888550 69.857307,186.885468 79.712578,176.910095
	C79.712578,222.312683 79.712578,266.339874 79.712578,310.614563
	C153.171509,310.614563 226.057632,310.614563 299.001221,310.614563
	C299.001221,305.304199 299.001221,300.287598 299.001221,294.800049
	C236.139008,294.800049 173.735260,294.800049 111.250893,294.800049
	C111.127861,293.683960 110.994766,293.039551 110.994652,292.395172
	C110.985863,244.401505 110.953331,196.407745 111.110718,148.414581
	C111.117172,146.446655 112.485924,144.059326 113.944489,142.583389
	C137.016190,119.236740 160.173752,95.974541 183.390610,72.772003
	C190.066315,66.100410 196.991486,59.678429 203.197098,53.722820
	C194.840424,45.178406 187.334946,37.504322 179.964462,29.968258
	C162.171997,47.599991 144.323624,65.287117 125.979156,83.478455
z" />
  <path fill="#666666" opacity="1.000000" stroke="none" d="
M504.001312,281.993286
	C502.341553,282.070435 500.681763,282.214966 499.022003,282.215149
	C375.700439,282.229828 252.378891,282.233154 129.057343,282.237366
	C127.564064,282.237396 126.070793,282.237366 123.740845,282.237366
	C123.740845,280.475708 123.740921,278.902283 123.740837,277.328857
	C123.738518,235.832809 123.709656,194.336716 123.816956,152.840942
	C123.821991,150.892929 124.479523,148.395523 125.774658,147.082977
	C153.858841,118.621445 182.076309,90.291420 210.278183,61.946083
	C210.617126,61.605412 211.087753,61.395760 211.409225,61.182980
	C240.491745,90.360352 269.524384,119.487686 298.730957,148.789520
	C298.260651,148.922882 297.574982,149.285126 296.888245,149.287094
	C285.056793,149.320969 273.223114,149.419937 261.395752,149.197144
	C259.519531,149.161804 257.242706,148.069916 255.876602,146.727951
	C242.327530,133.418289 228.935028,119.949326 215.485275,106.538399
	C214.314392,105.370888 213.051392,104.295769 210.353195,101.823524
	C208.884140,103.992378 207.767288,106.327339 206.049774,108.070473
	C189.326950,125.042961 172.472229,141.885590 155.767395,158.875641
	C154.406143,160.260132 153.080795,162.455322 153.072617,164.279785
	C152.922577,197.775574 152.975708,231.272293 152.996078,264.768799
	C152.996277,265.091675 153.134415,265.414520 153.332611,266.282349
	C270.257050,266.282349 387.304047,266.282349 505.070099,266.282349
	C505.070099,271.230652 505.070099,275.663757 504.785339,280.667480
	C504.254456,281.437103 504.088013,281.688812 504.001312,281.993286
z" />
  <path fill="#f5a333" opacity="1.000000" stroke="none" d="
M126.227203,83.226349
	C144.323624,65.287117 162.171997,47.599991 179.964462,29.968258
	C187.334946,37.504322 194.840424,45.178406 203.197098,53.722820
	C196.991486,59.678429 190.066315,66.100410 183.390610,72.772003
	C160.173752,95.974541 137.016190,119.236740 113.944489,142.583389
	C112.485924,144.059326 111.117172,146.446655 111.110718,148.414581
	C110.953331,196.407745 110.985863,244.401505 110.994652,292.395172
	C110.994766,293.039551 111.127861,293.683960 111.250893,294.800049
	C173.735260,294.800049 236.139008,294.800049 299.001221,294.800049
	C299.001221,300.287598 299.001221,305.304199 299.001221,310.614563
	C226.057632,310.614563 153.171509,310.614563 79.712578,310.614563
	C79.712578,266.339874 79.712578,222.312683 79.712578,176.910095
	C69.857307,186.885468 60.962612,195.888550 51.031895,205.940277
	C51.031895,191.633392 51.301594,178.883026 50.902596,166.153641
	C50.736984,160.870010 52.342945,157.189240 56.052227,153.511169
	C79.476929,130.283646 102.693726,106.846436 126.227203,83.226349
z" />
  <path fill="#5E5E5E" opacity="1.000000" stroke="none" d="
M504.284851,282.001892
	C504.088013,281.688812 504.254456,281.437103 504.702393,281.129395
	C504.792236,281.350616 504.680328,281.680542 504.284851,282.001892
z" />
</svg>